<svg width="737" height="456" aria-label="A chart." style="overflow: hidden;"><defs id="defs"><clipPath id="_ABSTRACT_RENDERER_ID_4"><rect x="141" y="87" width="456" height="282"></rect></clipPath></defs><rect x="0" y="0" width="737" height="456" stroke="none" stroke-width="0" fill="#ffffff"></rect><g><text text-anchor="start" x="141" y="63.6" font-family="Arial" font-size="16" font-weight="bold" stroke="none" stroke-width="0" fill="#000000">Simulation Results</text><rect x="141" y="50" width="456" height="16" stroke="none" stroke-width="0" fill-opacity="0" fill="#ffffff"></rect></g><g><rect x="141" y="87" width="456" height="282" stroke="none" stroke-width="0" fill-opacity="0" fill="#ffffff"></rect><g clip-path="url(https://docs.google.com/spreadsheets/d/1nq3xxnjcSGgBDq-G7UOmCHCNxk-HIormQMgoYCt2HfM/edit#_ABSTRACT_RENDERER_ID_4)"><g><rect x="141" y="87" width="1" height="282" stroke="none" stroke-width="0" fill="#cccccc"></rect><rect x="187" y="87" width="1" height="282" stroke="none" stroke-width="0" fill="#cccccc"></rect><rect x="232" y="87" width="1" height="282" stroke="none" stroke-width="0" fill="#cccccc"></rect><rect x="278" y="87" width="1" height="282" stroke="none" stroke-width="0" fill="#cccccc"></rect><rect x="323" y="87" width="1" height="282" stroke="none" stroke-width="0" fill="#cccccc"></rect><rect x="369" y="87" width="1" height="282" stroke="none" stroke-width="0" fill="#cccccc"></rect><rect x="414" y="87" width="1" height="282" stroke="none" stroke-width="0" fill="#cccccc"></rect><rect x="460" y="87" width="1" height="282" stroke="none" stroke-width="0" fill="#cccccc"></rect><rect x="505" y="87" width="1" height="282" stroke="none" stroke-width="0" fill="#cccccc"></rect><rect x="551" y="87" width="1" height="282" stroke="none" stroke-width="0" fill="#cccccc"></rect><rect x="596" y="87" width="1" height="282" stroke="none" stroke-width="0" fill="#cccccc"></rect><rect x="141" y="368" width="456" height="1" stroke="none" stroke-width="0" fill="#cccccc"></rect><rect x="141" y="298" width="456" height="1" stroke="none" stroke-width="0" fill="#cccccc"></rect><rect x="141" y="228" width="456" height="1" stroke="none" stroke-width="0" fill="#cccccc"></rect><rect x="141" y="157" width="456" height="1" stroke="none" stroke-width="0" fill="#cccccc"></rect><rect x="141" y="87" width="456" height="1" stroke="none" stroke-width="0" fill="#cccccc"></rect></g><g><rect x="141" y="368" width="456" height="1" stroke="none" stroke-width="0" fill="#333333"></rect></g><g><path d="M141.5,199.89999999999998L146.05,196.0222L150.6,192.2568L155.15,188.60379999999998L159.7,185.0632L164.25,181.635L168.8,178.3192L173.35,175.1158L177.9,172.0248L182.45,169.0462L187,166.17999999999998L191.55,163.4262L196.10000000000002,160.7848L200.64999999999998,158.2558L205.2,155.8392L209.75,153.53499999999997L214.3,151.3432L218.85000000000002,149.2638L223.39999999999998,147.2968L227.95,145.44219999999999L232.5,143.7L237.05,142.0702L241.60000000000002,140.5528L246.14999999999998,139.14779999999996L250.7,137.8552L255.25,136.67499999999998L259.8,135.60719999999998L264.35,134.6518L268.9,133.8088L273.45,133.07819999999998L278,132.45999999999998L282.54999999999995,131.95420000000001L287.1,131.56079999999997L291.65,131.2798L296.20000000000005,131.11119999999997L300.75,131.055L305.29999999999995,131.11119999999997L309.85,131.2798L314.4,131.56079999999997L318.95000000000005,131.95420000000001L323.5,132.45999999999998L328.04999999999995,133.07819999999998L332.6,133.8088L337.15,134.6518L341.70000000000005,135.60719999999998L346.25,136.67499999999998L350.79999999999995,137.8552L355.35,139.14779999999996L359.9,140.5528L364.45000000000005,142.0702L369,143.7L373.54999999999995,145.44219999999999L378.1,147.2968L382.65,149.2638L387.20000000000005,151.3432L391.75,153.53499999999997L396.29999999999995,155.8392L400.85,158.2558L405.4,160.7848L409.95,163.4262L414.5,166.17999999999998L419.05,169.0462L423.6,172.0248L428.15,175.1158L432.7,178.3192L437.25,181.635L441.8,185.0632L446.35,188.60379999999998L450.9,192.2568L455.45,196.0222L460,199.89999999999998L464.55,203.8902L469.09999999999997,207.9928L473.65000000000003,212.2078L478.2,216.53519999999997L482.75,220.975L487.3,225.5272L491.84999999999997,230.1918L496.40000000000003,234.9688L500.95,239.85819999999998L505.5,244.85999999999999L510.05,249.9742L514.5999999999999,255.2008L519.1500000000001,260.5398L523.7,265.9912L528.25,271.555L532.8,277.2312L537.3499999999999,283.01980000000003L541.9000000000001,288.9208L546.45,294.93420000000003L551,301.06L555.55,307.2982L560.0999999999999,313.6488L564.6500000000001,320.1118L569.2,326.6872L573.75,333.375L578.3,340.1752L582.8499999999999,347.0878L587.4000000000001,354.1128L591.95,361.2502L596.5,368.5" stroke="#3366cc" stroke-width="2" fill-opacity="1" fill="none"></path></g></g><g></g><g><g><text text-anchor="middle" x="141.5" y="388.05" font-family="Arial" font-size="13" stroke="none" stroke-width="0" fill="#444444">1</text></g><g><text text-anchor="middle" x="187" y="388.05" font-family="Arial" font-size="13" stroke="none" stroke-width="0" fill="#444444">2</text></g><g><text text-anchor="middle" x="232.5" y="388.05" font-family="Arial" font-size="13" stroke="none" stroke-width="0" fill="#444444">3</text></g><g><text text-anchor="middle" x="278" y="388.05" font-family="Arial" font-size="13" stroke="none" stroke-width="0" fill="#444444">4</text></g><g><text text-anchor="middle" x="323.5" y="388.05" font-family="Arial" font-size="13" stroke="none" stroke-width="0" fill="#444444">5</text></g><g><text text-anchor="middle" x="369" y="388.05" font-family="Arial" font-size="13" stroke="none" stroke-width="0" fill="#444444">6</text></g><g><text text-anchor="middle" x="414.5" y="388.05" font-family="Arial" font-size="13" stroke="none" stroke-width="0" fill="#444444">7</text></g><g><text text-anchor="middle" x="460" y="388.05" font-family="Arial" font-size="13" stroke="none" stroke-width="0" fill="#444444">8</text></g><g><text text-anchor="middle" x="505.5" y="388.05" font-family="Arial" font-size="13" stroke="none" stroke-width="0" fill="#444444">9</text></g><g><text text-anchor="middle" x="551" y="388.05" font-family="Arial" font-size="13" stroke="none" stroke-width="0" fill="#444444">10</text></g><g><text text-anchor="middle" x="596.5" y="388.05" font-family="Arial" font-size="13" stroke="none" stroke-width="0" fill="#444444">11</text></g><g><text text-anchor="end" x="128" y="373.05" font-family="Arial" font-size="13" stroke="none" stroke-width="0" fill="#444444">0</text></g><g><text text-anchor="end" x="128" y="302.8" font-family="Arial" font-size="13" stroke="none" stroke-width="0" fill="#444444">1.25</text></g><g><text text-anchor="end" x="128" y="232.55" font-family="Arial" font-size="13" stroke="none" stroke-width="0" fill="#444444">2.5</text></g><g><text text-anchor="end" x="128" y="162.3" font-family="Arial" font-size="13" stroke="none" stroke-width="0" fill="#444444">3.75</text></g><g><text text-anchor="end" x="128" y="92.05" font-family="Arial" font-size="13" stroke="none" stroke-width="0" fill="#444444">5</text></g></g><g><rect x="141" y="95" width="122" height="13" stroke="none" stroke-width="0" fill-opacity="0" fill="#ffffff"></rect><g><rect x="141" y="95" width="122" height="13" stroke="none" stroke-width="0" fill-opacity="0" fill="#ffffff"></rect><g><g><text text-anchor="start" x="172" y="106.05" font-family="Arial" font-size="13" stroke="#ffffff" stroke-width="3" fill="#222222" aria-hidden="true">Payoff Amplifier</text><text text-anchor="start" x="172" y="106.05" font-family="Arial" font-size="13" stroke="none" stroke-width="0" fill="#222222">Payoff Amplifier</text></g></g><path d="M141,101.5L167,101.5" stroke="#3366cc" stroke-width="2" fill-opacity="1" fill="none"></path></g></g></g><g><g><text text-anchor="middle" x="369" y="427.55" font-family="Arial" font-size="13" font-style="italic" stroke="none" stroke-width="0" fill="#222222">Period of the game</text><rect x="141" y="416.5" width="456" height="13" stroke="none" stroke-width="0" fill-opacity="0" fill="#ffffff"></rect></g><g><text text-anchor="middle" x="56.05" y="228" font-family="Arial" font-size="13" font-style="italic" transform="rotate(-90 56.05 228)" stroke="none" stroke-width="0" fill="#222222">Payoff Amplifier</text><path d="M44.99999999999999,369L45.00000000000001,87L58.00000000000001,87L57.99999999999999,369Z" stroke="none" stroke-width="0" fill-opacity="0" fill="#ffffff"></path></g></g><g></g></svg>
