<svg width="633" height="391" aria-label="A chart." style="overflow: hidden;"><defs id="defs"><clipPath id="_ABSTRACT_RENDERER_ID_0"><rect x="121" y="75" width="391" height="242"></rect></clipPath></defs><rect x="0" y="0" width="633" height="391" stroke="none" stroke-width="0" fill="#ffffff"></rect><g><text text-anchor="start" x="121" y="31.8" font-family="Roboto" font-size="18" font-weight="bold" stroke="none" stroke-width="0" fill="#000000">Lowest Possible</text><text text-anchor="start" x="121" y="55.8" font-family="Roboto" font-size="18" font-weight="bold" stroke="none" stroke-width="0" fill="#000000">Outcome</text><rect x="121" y="16.5" width="391" height="42" stroke="none" stroke-width="0" fill-opacity="0" fill="#ffffff"></rect></g><g><rect x="523" y="75" width="99" height="47" stroke="none" stroke-width="0" fill-opacity="0" fill="#ffffff"></rect><g><rect x="523" y="75" width="99" height="11" stroke="none" stroke-width="0" fill-opacity="0" fill="#ffffff"></rect><g><text text-anchor="start" x="549" y="84.35" font-family="Roboto" font-size="11" stroke="none" stroke-width="0" fill="#666666">Investment</text></g><path d="M523,80.5L545,80.5" stroke="#1c4587" stroke-width="2" fill-opacity="1" fill="none"></path></g><g><rect x="523" y="93" width="99" height="11" stroke="none" stroke-width="0" fill-opacity="0" fill="#ffffff"></rect><g><text text-anchor="start" x="549" y="102.35" font-family="Roboto" font-size="11" stroke="none" stroke-width="0" fill="#666666">Contribution</text></g><path d="M523,98.5L545,98.5" stroke="#6d9eeb" stroke-width="2" fill-opacity="1" fill="none"></path><circle cx="534" cy="98.5" r="5.5" stroke="none" stroke-width="0" fill="#6d9eeb"></circle></g><g><rect x="523" y="111" width="99" height="11" stroke="none" stroke-width="0" fill-opacity="0" fill="#ffffff"></rect><g><text text-anchor="start" x="549" y="120.35" font-family="Roboto" font-size="11" stroke="none" stroke-width="0" fill="#666666">Payoff</text></g><path d="M523,116.5L545,116.5" stroke="#f2a600" stroke-width="2" fill-opacity="1" fill="none"></path><path d="M537.889087296526,112.61091270347399L537.889087296526,120.38908729652601L530.110912703474,120.38908729652601L530.110912703474,112.61091270347399Z" stroke="none" stroke-width="0" fill="#f2a600"></path></g></g><g><rect x="121" y="75" width="391" height="242" stroke="none" stroke-width="0" fill-opacity="0" fill="#ffffff"></rect><g clip-path="url(https://docs.google.com/spreadsheets/d/1nq3xxnjcSGgBDq-G7UOmCHCNxk-HIormQMgoYCt2HfM/edit#_ABSTRACT_RENDERER_ID_0)"><g><rect x="121" y="75" width="1" height="242" stroke="none" stroke-width="0" fill="#e0e0e0"></rect><rect x="164" y="75" width="1" height="242" stroke="none" stroke-width="0" fill="#e0e0e0"></rect><rect x="208" y="75" width="1" height="242" stroke="none" stroke-width="0" fill="#e0e0e0"></rect><rect x="251" y="75" width="1" height="242" stroke="none" stroke-width="0" fill="#e0e0e0"></rect><rect x="294" y="75" width="1" height="242" stroke="none" stroke-width="0" fill="#e0e0e0"></rect><rect x="338" y="75" width="1" height="242" stroke="none" stroke-width="0" fill="#e0e0e0"></rect><rect x="381" y="75" width="1" height="242" stroke="none" stroke-width="0" fill="#e0e0e0"></rect><rect x="424" y="75" width="1" height="242" stroke="none" stroke-width="0" fill="#e0e0e0"></rect><rect x="468" y="75" width="1" height="242" stroke="none" stroke-width="0" fill="#e0e0e0"></rect><rect x="511" y="75" width="1" height="242" stroke="none" stroke-width="0" fill="#e0e0e0"></rect><rect x="121" y="316" width="391" height="1" stroke="none" stroke-width="0" fill="#e0e0e0"></rect><rect x="121" y="256" width="391" height="1" stroke="none" stroke-width="0" fill="#e0e0e0"></rect><rect x="121" y="196" width="391" height="1" stroke="none" stroke-width="0" fill="#e0e0e0"></rect><rect x="121" y="135" width="391" height="1" stroke="none" stroke-width="0" fill="#e0e0e0"></rect><rect x="121" y="75" width="391" height="1" stroke="none" stroke-width="0" fill="#e0e0e0"></rect></g><g><rect x="121" y="316" width="391" height="1" stroke="none" stroke-width="0" fill="#9e9e9e"></rect></g><g><path d="M121.5,75.5L164.83333333333334,75.5L208.16666666666669,75.5L251.5,75.5L294.83333333333337,75.5L338.1666666666667,75.5L381.5,75.5L424.83333333333337,75.5L468.1666666666667,75.5L511.5,75.5" stroke="#1c4587" stroke-width="2" fill-opacity="1" fill="none"></path><path d="M121.5,316.5L164.83333333333334,316.5L208.16666666666669,316.5L251.5,316.5L294.83333333333337,316.5L338.1666666666667,316.5L381.5,316.5L424.83333333333337,316.5L468.1666666666667,316.5L511.5,316.5" stroke="#6d9eeb" stroke-width="2" fill-opacity="1" fill="none"></path><path d="M121.5,316.5L164.83333333333334,316.5L208.16666666666669,316.5L251.5,316.5L294.83333333333337,316.5L338.1666666666667,316.5L381.5,316.5L424.83333333333337,316.5L468.1666666666667,316.5L511.5,316.5" stroke="#f2a600" stroke-width="2" fill-opacity="1" fill="none"></path></g></g><g><circle cx="121.5" cy="316.5" r="8" stroke="none" stroke-width="0" fill="#6d9eeb"></circle><circle cx="164.83333333333334" cy="316.5" r="8" stroke="none" stroke-width="0" fill="#6d9eeb"></circle><circle cx="208.16666666666669" cy="316.5" r="8" stroke="none" stroke-width="0" fill="#6d9eeb"></circle><circle cx="251.5" cy="316.5" r="8" stroke="none" stroke-width="0" fill="#6d9eeb"></circle><circle cx="294.83333333333337" cy="316.5" r="8" stroke="none" stroke-width="0" fill="#6d9eeb"></circle><circle cx="338.1666666666667" cy="316.5" r="8" stroke="none" stroke-width="0" fill="#6d9eeb"></circle><circle cx="381.5" cy="316.5" r="8" stroke="none" stroke-width="0" fill="#6d9eeb"></circle><circle cx="424.83333333333337" cy="316.5" r="8" stroke="none" stroke-width="0" fill="#6d9eeb"></circle><circle cx="468.1666666666667" cy="316.5" r="8" stroke="none" stroke-width="0" fill="#6d9eeb"></circle><circle cx="511.5" cy="316.5" r="8" stroke="none" stroke-width="0" fill="#6d9eeb"></circle><path d="M125.74264068711929,312.25735931288074L125.74264068711929,320.74264068711926L117.25735931288071,320.74264068711926L117.25735931288071,312.25735931288074Z" stroke="none" stroke-width="0" fill="#f2a600"></path><path d="M169.07597402045263,312.25735931288074L169.07597402045263,320.74264068711926L160.59069264621405,320.74264068711926L160.59069264621405,312.25735931288074Z" stroke="none" stroke-width="0" fill="#f2a600"></path><path d="M212.40930735378598,312.25735931288074L212.40930735378598,320.74264068711926L203.9240259795474,320.74264068711926L203.9240259795474,312.25735931288074Z" stroke="none" stroke-width="0" fill="#f2a600"></path><path d="M255.7426406871193,312.25735931288074L255.7426406871193,320.74264068711926L247.2573593128807,320.74264068711926L247.2573593128807,312.25735931288074Z" stroke="none" stroke-width="0" fill="#f2a600"></path><path d="M299.07597402045263,312.25735931288074L299.07597402045263,320.74264068711926L290.5906926462141,320.74264068711926L290.5906926462141,312.25735931288074Z" stroke="none" stroke-width="0" fill="#f2a600"></path><path d="M342.40930735378595,312.25735931288074L342.40930735378595,320.74264068711926L333.9240259795474,320.74264068711926L333.9240259795474,312.25735931288074Z" stroke="none" stroke-width="0" fill="#f2a600"></path><path d="M385.74264068711926,312.25735931288074L385.74264068711926,320.74264068711926L377.25735931288074,320.74264068711926L377.25735931288074,312.25735931288074Z" stroke="none" stroke-width="0" fill="#f2a600"></path><path d="M429.07597402045263,312.25735931288074L429.07597402045263,320.74264068711926L420.5906926462141,320.74264068711926L420.5906926462141,312.25735931288074Z" stroke="none" stroke-width="0" fill="#f2a600"></path><path d="M472.40930735378595,312.25735931288074L472.40930735378595,320.74264068711926L463.9240259795474,320.74264068711926L463.9240259795474,312.25735931288074Z" stroke="none" stroke-width="0" fill="#f2a600"></path><path d="M515.7426406871193,312.25735931288074L515.7426406871193,320.74264068711926L507.25735931288074,320.74264068711926L507.25735931288074,312.25735931288074Z" stroke="none" stroke-width="0" fill="#f2a600"></path></g><g><g><text text-anchor="middle" x="121.5" y="334.2" font-family="Roboto" font-size="12" stroke="none" stroke-width="0" fill="#000000">1</text></g><g><text text-anchor="middle" x="164.83333333333334" y="334.2" font-family="Roboto" font-size="12" stroke="none" stroke-width="0" fill="#000000">2</text></g><g><text text-anchor="middle" x="208.16666666666669" y="334.2" font-family="Roboto" font-size="12" stroke="none" stroke-width="0" fill="#000000">3</text></g><g><text text-anchor="middle" x="251.5" y="334.2" font-family="Roboto" font-size="12" stroke="none" stroke-width="0" fill="#000000">4</text></g><g><text text-anchor="middle" x="294.83333333333337" y="334.2" font-family="Roboto" font-size="12" stroke="none" stroke-width="0" fill="#000000">5</text></g><g><text text-anchor="middle" x="338.1666666666667" y="334.2" font-family="Roboto" font-size="12" stroke="none" stroke-width="0" fill="#000000">6</text></g><g><text text-anchor="middle" x="381.5" y="334.2" font-family="Roboto" font-size="12" stroke="none" stroke-width="0" fill="#000000">7</text></g><g><text text-anchor="middle" x="424.83333333333337" y="334.2" font-family="Roboto" font-size="12" stroke="none" stroke-width="0" fill="#000000">8</text></g><g><text text-anchor="middle" x="468.1666666666667" y="334.2" font-family="Roboto" font-size="12" stroke="none" stroke-width="0" fill="#000000">9</text></g><g><text text-anchor="middle" x="511.5" y="334.2" font-family="Roboto" font-size="12" stroke="none" stroke-width="0" fill="#000000">10</text></g><g><text text-anchor="end" x="111" y="320" font-family="Roboto" font-size="10" stroke="none" stroke-width="0" fill="#b7b7b7">0</text></g><g><text text-anchor="end" x="111" y="259.75" font-family="Roboto" font-size="10" stroke="none" stroke-width="0" fill="#b7b7b7">2.5</text></g><g><text text-anchor="end" x="111" y="199.5" font-family="Roboto" font-size="10" stroke="none" stroke-width="0" fill="#b7b7b7">5</text></g><g><text text-anchor="end" x="111" y="139.25" font-family="Roboto" font-size="10" stroke="none" stroke-width="0" fill="#b7b7b7">7.5</text></g><g><text text-anchor="end" x="111" y="79" font-family="Roboto" font-size="10" stroke="none" stroke-width="0" fill="#b7b7b7">10</text></g></g></g><g><g><text text-anchor="middle" x="316.5" y="367.7" font-family="Roboto" font-size="12" font-style="italic" stroke="none" stroke-width="0" fill="#222222">Period of the game</text><rect x="121" y="357.5" width="391" height="12" stroke="none" stroke-width="0" fill-opacity="0" fill="#ffffff"></rect></g></g><g></g></svg>
