<svg width="708" height="438" aria-label="A chart." style="overflow: hidden;"><defs id="defs"><clipPath id="_ABSTRACT_RENDERER_ID_1"><rect x="135" y="84" width="438" height="271"></rect></clipPath></defs><rect x="0" y="0" width="708" height="438" stroke="none" stroke-width="0" fill="#ffffff"></rect><g><text text-anchor="start" x="135" y="60.3" font-family="Roboto" font-size="18" font-weight="bold" stroke="none" stroke-width="0" fill="#000000">Equilibrium with no contributions</text><rect x="135" y="45" width="438" height="18" stroke="none" stroke-width="0" fill-opacity="0" fill="#ffffff"></rect></g><g><rect x="584" y="84" width="113" height="47" stroke="none" stroke-width="0" fill-opacity="0" fill="#ffffff"></rect><g><rect x="584" y="84" width="113" height="11" stroke="none" stroke-width="0" fill-opacity="0" fill="#ffffff"></rect><g><text text-anchor="start" x="610" y="93.35" font-family="Roboto" font-size="11" stroke="none" stroke-width="0" fill="#666666">Investment</text></g><path d="M584,89.5L606,89.5" stroke="#1c4587" stroke-width="2" fill-opacity="1" fill="none"></path></g><g><rect x="584" y="102" width="113" height="11" stroke="none" stroke-width="0" fill-opacity="0" fill="#ffffff"></rect><g><text text-anchor="start" x="610" y="111.35" font-family="Roboto" font-size="11" stroke="none" stroke-width="0" fill="#666666">Contribution</text></g><path d="M584,107.5L606,107.5" stroke="#6d9eeb" stroke-width="2" fill-opacity="1" fill="none"></path><circle cx="595" cy="107.5" r="5.5" stroke="none" stroke-width="0" fill="#6d9eeb"></circle></g><g><rect x="584" y="120" width="113" height="11" stroke="none" stroke-width="0" fill-opacity="0" fill="#ffffff"></rect><g><text text-anchor="start" x="610" y="129.35" font-family="Roboto" font-size="11" stroke="none" stroke-width="0" fill="#666666">Payoff</text></g><path d="M584,125.5L606,125.5" stroke="#f2a600" stroke-width="2" fill-opacity="1" fill="none"></path><path d="M598.889087296526,121.61091270347399L598.889087296526,129.38908729652601L591.110912703474,129.38908729652601L591.110912703474,121.61091270347399Z" stroke="none" stroke-width="0" fill="#f2a600"></path></g></g><g><rect x="135" y="84" width="438" height="271" stroke="none" stroke-width="0" fill-opacity="0" fill="#ffffff"></rect><g clip-path="url(https://docs.google.com/spreadsheets/d/1nq3xxnjcSGgBDq-G7UOmCHCNxk-HIormQMgoYCt2HfM/edit#_ABSTRACT_RENDERER_ID_1)"><g><rect x="135" y="84" width="1" height="271" stroke="none" stroke-width="0" fill="#e0e0e0"></rect><rect x="184" y="84" width="1" height="271" stroke="none" stroke-width="0" fill="#e0e0e0"></rect><rect x="232" y="84" width="1" height="271" stroke="none" stroke-width="0" fill="#e0e0e0"></rect><rect x="281" y="84" width="1" height="271" stroke="none" stroke-width="0" fill="#e0e0e0"></rect><rect x="329" y="84" width="1" height="271" stroke="none" stroke-width="0" fill="#e0e0e0"></rect><rect x="378" y="84" width="1" height="271" stroke="none" stroke-width="0" fill="#e0e0e0"></rect><rect x="426" y="84" width="1" height="271" stroke="none" stroke-width="0" fill="#e0e0e0"></rect><rect x="475" y="84" width="1" height="271" stroke="none" stroke-width="0" fill="#e0e0e0"></rect><rect x="523" y="84" width="1" height="271" stroke="none" stroke-width="0" fill="#e0e0e0"></rect><rect x="572" y="84" width="1" height="271" stroke="none" stroke-width="0" fill="#e0e0e0"></rect><rect x="135" y="354" width="438" height="1" stroke="none" stroke-width="0" fill="#e0e0e0"></rect><rect x="135" y="287" width="438" height="1" stroke="none" stroke-width="0" fill="#e0e0e0"></rect><rect x="135" y="219" width="438" height="1" stroke="none" stroke-width="0" fill="#e0e0e0"></rect><rect x="135" y="152" width="438" height="1" stroke="none" stroke-width="0" fill="#e0e0e0"></rect><rect x="135" y="84" width="438" height="1" stroke="none" stroke-width="0" fill="#e0e0e0"></rect></g><g><rect x="135" y="354" width="438" height="1" stroke="none" stroke-width="0" fill="#9e9e9e"></rect></g><g><path d="M135.5,354.5L184.05555555555554,354.5L232.61111111111111,354.5L281.1666666666667,354.5L329.72222222222223,354.5L378.27777777777777,354.5L426.83333333333337,354.5L475.3888888888889,354.5L523.9444444444445,354.5L572.5,354.5" stroke="#1c4587" stroke-width="2" fill-opacity="1" fill="none"></path><path d="M135.5,354.5L184.05555555555554,354.5L232.61111111111111,354.5L281.1666666666667,354.5L329.72222222222223,354.5L378.27777777777777,354.5L426.83333333333337,354.5L475.3888888888889,354.5L523.9444444444445,354.5L572.5,354.5" stroke="#6d9eeb" stroke-width="2" fill-opacity="1" fill="none"></path><path d="M135.5,84.5L184.05555555555554,84.5L232.61111111111111,84.5L281.1666666666667,84.5L329.72222222222223,84.5L378.27777777777777,84.5L426.83333333333337,84.5L475.3888888888889,84.5L523.9444444444445,84.5L572.5,84.5" stroke="#f2a600" stroke-width="2" fill-opacity="1" fill="none"></path></g></g><g><circle cx="135.5" cy="354.5" r="8" stroke="none" stroke-width="0" fill="#6d9eeb"></circle><circle cx="184.05555555555554" cy="354.5" r="8" stroke="none" stroke-width="0" fill="#6d9eeb"></circle><circle cx="232.61111111111111" cy="354.5" r="8" stroke="none" stroke-width="0" fill="#6d9eeb"></circle><circle cx="281.1666666666667" cy="354.5" r="8" stroke="none" stroke-width="0" fill="#6d9eeb"></circle><circle cx="329.72222222222223" cy="354.5" r="8" stroke="none" stroke-width="0" fill="#6d9eeb"></circle><circle cx="378.27777777777777" cy="354.5" r="8" stroke="none" stroke-width="0" fill="#6d9eeb"></circle><circle cx="426.83333333333337" cy="354.5" r="8" stroke="none" stroke-width="0" fill="#6d9eeb"></circle><circle cx="475.3888888888889" cy="354.5" r="8" stroke="none" stroke-width="0" fill="#6d9eeb"></circle><circle cx="523.9444444444445" cy="354.5" r="8" stroke="none" stroke-width="0" fill="#6d9eeb"></circle><circle cx="572.5" cy="354.5" r="8" stroke="none" stroke-width="0" fill="#6d9eeb"></circle><path d="M139.7426406871193,80.25735931288071L139.7426406871193,88.74264068711929L131.2573593128807,88.74264068711929L131.2573593128807,80.25735931288071Z" stroke="none" stroke-width="0" fill="#f2a600"></path><path d="M188.29819624267483,80.25735931288071L188.29819624267483,88.74264068711929L179.81291486843625,88.74264068711929L179.81291486843625,80.25735931288071Z" stroke="none" stroke-width="0" fill="#f2a600"></path><path d="M236.8537517982304,80.25735931288071L236.8537517982304,88.74264068711929L228.36847042399182,88.74264068711929L228.36847042399182,80.25735931288071Z" stroke="none" stroke-width="0" fill="#f2a600"></path><path d="M285.40930735378595,80.25735931288071L285.40930735378595,88.74264068711929L276.9240259795474,88.74264068711929L276.9240259795474,80.25735931288071Z" stroke="none" stroke-width="0" fill="#f2a600"></path><path d="M333.9648629093415,80.25735931288071L333.9648629093415,88.74264068711929L325.47958153510297,88.74264068711929L325.47958153510297,80.25735931288071Z" stroke="none" stroke-width="0" fill="#f2a600"></path><path d="M382.52041846489703,80.25735931288071L382.52041846489703,88.74264068711929L374.0351370906585,88.74264068711929L374.0351370906585,80.25735931288071Z" stroke="none" stroke-width="0" fill="#f2a600"></path><path d="M431.07597402045263,80.25735931288071L431.07597402045263,88.74264068711929L422.5906926462141,88.74264068711929L422.5906926462141,80.25735931288071Z" stroke="none" stroke-width="0" fill="#f2a600"></path><path d="M479.6315295760082,80.25735931288071L479.6315295760082,88.74264068711929L471.14624820176965,88.74264068711929L471.14624820176965,80.25735931288071Z" stroke="none" stroke-width="0" fill="#f2a600"></path><path d="M528.1870851315638,80.25735931288071L528.1870851315638,88.74264068711929L519.7018037573251,88.74264068711929L519.7018037573251,80.25735931288071Z" stroke="none" stroke-width="0" fill="#f2a600"></path><path d="M576.7426406871193,80.25735931288071L576.7426406871193,88.74264068711929L568.2573593128807,88.74264068711929L568.2573593128807,80.25735931288071Z" stroke="none" stroke-width="0" fill="#f2a600"></path></g><g><g><text text-anchor="middle" x="135.5" y="372.2" font-family="Roboto" font-size="12" stroke="none" stroke-width="0" fill="#000000">1</text></g><g><text text-anchor="middle" x="184.05555555555554" y="372.2" font-family="Roboto" font-size="12" stroke="none" stroke-width="0" fill="#000000">2</text></g><g><text text-anchor="middle" x="232.61111111111111" y="372.2" font-family="Roboto" font-size="12" stroke="none" stroke-width="0" fill="#000000">3</text></g><g><text text-anchor="middle" x="281.1666666666667" y="372.2" font-family="Roboto" font-size="12" stroke="none" stroke-width="0" fill="#000000">4</text></g><g><text text-anchor="middle" x="329.72222222222223" y="372.2" font-family="Roboto" font-size="12" stroke="none" stroke-width="0" fill="#000000">5</text></g><g><text text-anchor="middle" x="378.27777777777777" y="372.2" font-family="Roboto" font-size="12" stroke="none" stroke-width="0" fill="#000000">6</text></g><g><text text-anchor="middle" x="426.83333333333337" y="372.2" font-family="Roboto" font-size="12" stroke="none" stroke-width="0" fill="#000000">7</text></g><g><text text-anchor="middle" x="475.3888888888889" y="372.2" font-family="Roboto" font-size="12" stroke="none" stroke-width="0" fill="#000000">8</text></g><g><text text-anchor="middle" x="523.9444444444445" y="372.2" font-family="Roboto" font-size="12" stroke="none" stroke-width="0" fill="#000000">9</text></g><g><text text-anchor="middle" x="572.5" y="372.2" font-family="Roboto" font-size="12" stroke="none" stroke-width="0" fill="#000000">10</text></g><g><text text-anchor="end" x="125" y="358" font-family="Roboto" font-size="10" stroke="none" stroke-width="0" fill="#b7b7b7">0</text></g><g><text text-anchor="end" x="125" y="290.5" font-family="Roboto" font-size="10" stroke="none" stroke-width="0" fill="#b7b7b7">2.5</text></g><g><text text-anchor="end" x="125" y="223" font-family="Roboto" font-size="10" stroke="none" stroke-width="0" fill="#b7b7b7">5</text></g><g><text text-anchor="end" x="125" y="155.5" font-family="Roboto" font-size="10" stroke="none" stroke-width="0" fill="#b7b7b7">7.5</text></g><g><text text-anchor="end" x="125" y="88" font-family="Roboto" font-size="10" stroke="none" stroke-width="0" fill="#b7b7b7">10</text></g></g></g><g><g><text text-anchor="middle" x="354" y="410.2" font-family="Roboto" font-size="12" font-style="italic" stroke="none" stroke-width="0" fill="#222222">Period of the game</text><rect x="135" y="400" width="438" height="12" stroke="none" stroke-width="0" fill-opacity="0" fill="#ffffff"></rect></g></g><g></g></svg>
