<svg width="673" height="416" aria-label="A chart." style="overflow: hidden;"><defs id="defs"><clipPath id="_ABSTRACT_RENDERER_ID_2"><rect x="129" y="80" width="416" height="257"></rect></clipPath></defs><rect x="0" y="0" width="673" height="416" stroke="none" stroke-width="0" fill="#ffffff"></rect><g><text text-anchor="start" x="129" y="56.3" font-family="Roboto" font-size="18" font-weight="bold" stroke="none" stroke-width="0" fill="#000000">Highest Equilibrium Payoff</text><rect x="129" y="41" width="416" height="18" stroke="none" stroke-width="0" fill-opacity="0" fill="#ffffff"></rect></g><g><rect x="556" y="80" width="106" height="47" stroke="none" stroke-width="0" fill-opacity="0" fill="#ffffff"></rect><g><rect x="556" y="80" width="106" height="11" stroke="none" stroke-width="0" fill-opacity="0" fill="#ffffff"></rect><g><text text-anchor="start" x="582" y="89.35" font-family="Roboto" font-size="11" stroke="none" stroke-width="0" fill="#666666">Investment</text></g><path d="M556,85.5L578,85.5" stroke="#1c4587" stroke-width="2" fill-opacity="1" fill="none"></path></g><g><rect x="556" y="98" width="106" height="11" stroke="none" stroke-width="0" fill-opacity="0" fill="#ffffff"></rect><g><text text-anchor="start" x="582" y="107.35" font-family="Roboto" font-size="11" stroke="none" stroke-width="0" fill="#666666">Contribution</text></g><path d="M556,103.5L578,103.5" stroke="#6d9eeb" stroke-width="2" fill-opacity="1" fill="none"></path><circle cx="567" cy="103.5" r="5.5" stroke="none" stroke-width="0" fill="#6d9eeb"></circle></g><g><rect x="556" y="116" width="106" height="11" stroke="none" stroke-width="0" fill-opacity="0" fill="#ffffff"></rect><g><text text-anchor="start" x="582" y="125.35" font-family="Roboto" font-size="11" stroke="none" stroke-width="0" fill="#666666">Payoff</text></g><path d="M556,121.5L578,121.5" stroke="#f2a600" stroke-width="2" fill-opacity="1" fill="none"></path><path d="M570.889087296526,117.61091270347399L570.889087296526,125.38908729652601L563.110912703474,125.38908729652601L563.110912703474,117.61091270347399Z" stroke="none" stroke-width="0" fill="#f2a600"></path></g></g><g><rect x="129" y="80" width="416" height="257" stroke="none" stroke-width="0" fill-opacity="0" fill="#ffffff"></rect><g clip-path="url(https://docs.google.com/spreadsheets/d/1nq3xxnjcSGgBDq-G7UOmCHCNxk-HIormQMgoYCt2HfM/edit#_ABSTRACT_RENDERER_ID_2)"><g><rect x="129" y="80" width="1" height="257" stroke="none" stroke-width="0" fill="#e0e0e0"></rect><rect x="175" y="80" width="1" height="257" stroke="none" stroke-width="0" fill="#e0e0e0"></rect><rect x="221" y="80" width="1" height="257" stroke="none" stroke-width="0" fill="#e0e0e0"></rect><rect x="267" y="80" width="1" height="257" stroke="none" stroke-width="0" fill="#e0e0e0"></rect><rect x="313" y="80" width="1" height="257" stroke="none" stroke-width="0" fill="#e0e0e0"></rect><rect x="360" y="80" width="1" height="257" stroke="none" stroke-width="0" fill="#e0e0e0"></rect><rect x="406" y="80" width="1" height="257" stroke="none" stroke-width="0" fill="#e0e0e0"></rect><rect x="452" y="80" width="1" height="257" stroke="none" stroke-width="0" fill="#e0e0e0"></rect><rect x="498" y="80" width="1" height="257" stroke="none" stroke-width="0" fill="#e0e0e0"></rect><rect x="544" y="80" width="1" height="257" stroke="none" stroke-width="0" fill="#e0e0e0"></rect><rect x="129" y="336" width="416" height="1" stroke="none" stroke-width="0" fill="#e0e0e0"></rect><rect x="129" y="272" width="416" height="1" stroke="none" stroke-width="0" fill="#e0e0e0"></rect><rect x="129" y="208" width="416" height="1" stroke="none" stroke-width="0" fill="#e0e0e0"></rect><rect x="129" y="144" width="416" height="1" stroke="none" stroke-width="0" fill="#e0e0e0"></rect><rect x="129" y="80" width="416" height="1" stroke="none" stroke-width="0" fill="#e0e0e0"></rect></g><g><rect x="129" y="336" width="416" height="1" stroke="none" stroke-width="0" fill="#9e9e9e"></rect></g><g><path d="M129.5,272.5L175.61111111111111,272.5L221.72222222222223,272.5L267.83333333333337,272.5L313.94444444444446,272.5L360.05555555555554,272.5L406.1666666666667,272.5L452.2777777777778,336.5L498.3888888888889,336.5L544.5,336.5" stroke="#1c4587" stroke-width="2" fill-opacity="1" fill="none"></path><path d="M129.5,336.5L175.61111111111111,336.5L221.72222222222223,336.5L267.83333333333337,336.5L313.94444444444446,336.5L360.05555555555554,336.5L406.1666666666667,336.5L452.2777777777778,272.5L498.3888888888889,272.5L544.5,272.5" stroke="#6d9eeb" stroke-width="2" fill-opacity="1" fill="none"></path><path d="M129.5,336.5L175.61111111111111,336.5L221.72222222222223,336.5L267.83333333333337,336.5L313.94444444444446,336.5L360.05555555555554,336.5L406.1666666666667,336.5L452.2777777777778,80.5L498.3888888888889,80.5L544.5,80.5" stroke="#f2a600" stroke-width="2" fill-opacity="1" fill="none"></path></g></g><g><circle cx="129.5" cy="336.5" r="8" stroke="none" stroke-width="0" fill="#6d9eeb"></circle><circle cx="175.61111111111111" cy="336.5" r="8" stroke="none" stroke-width="0" fill="#6d9eeb"></circle><circle cx="221.72222222222223" cy="336.5" r="8" stroke="none" stroke-width="0" fill="#6d9eeb"></circle><circle cx="267.83333333333337" cy="336.5" r="8" stroke="none" stroke-width="0" fill="#6d9eeb"></circle><circle cx="313.94444444444446" cy="336.5" r="8" stroke="none" stroke-width="0" fill="#6d9eeb"></circle><circle cx="360.05555555555554" cy="336.5" r="8" stroke="none" stroke-width="0" fill="#6d9eeb"></circle><circle cx="406.1666666666667" cy="336.5" r="8" stroke="none" stroke-width="0" fill="#6d9eeb"></circle><circle cx="452.2777777777778" cy="272.5" r="8" stroke="none" stroke-width="0" fill="#6d9eeb"></circle><circle cx="498.3888888888889" cy="272.5" r="8" stroke="none" stroke-width="0" fill="#6d9eeb"></circle><circle cx="544.5" cy="272.5" r="8" stroke="none" stroke-width="0" fill="#6d9eeb"></circle><path d="M133.7426406871193,332.25735931288074L133.7426406871193,340.74264068711926L125.25735931288071,340.74264068711926L125.25735931288071,332.25735931288074Z" stroke="none" stroke-width="0" fill="#f2a600"></path><path d="M179.8537517982304,332.25735931288074L179.8537517982304,340.74264068711926L171.36847042399182,340.74264068711926L171.36847042399182,332.25735931288074Z" stroke="none" stroke-width="0" fill="#f2a600"></path><path d="M225.96486290934152,332.25735931288074L225.96486290934152,340.74264068711926L217.47958153510294,340.74264068711926L217.47958153510294,332.25735931288074Z" stroke="none" stroke-width="0" fill="#f2a600"></path><path d="M272.07597402045263,332.25735931288074L272.07597402045263,340.74264068711926L263.5906926462141,340.74264068711926L263.5906926462141,332.25735931288074Z" stroke="none" stroke-width="0" fill="#f2a600"></path><path d="M318.1870851315637,332.25735931288074L318.1870851315637,340.74264068711926L309.7018037573252,340.74264068711926L309.7018037573252,332.25735931288074Z" stroke="none" stroke-width="0" fill="#f2a600"></path><path d="M364.2981962426748,332.25735931288074L364.2981962426748,340.74264068711926L355.8129148684363,340.74264068711926L355.8129148684363,332.25735931288074Z" stroke="none" stroke-width="0" fill="#f2a600"></path><path d="M410.40930735378595,332.25735931288074L410.40930735378595,340.74264068711926L401.9240259795474,340.74264068711926L401.9240259795474,332.25735931288074Z" stroke="none" stroke-width="0" fill="#f2a600"></path><path d="M456.5204184648971,76.25735931288071L456.5204184648971,84.74264068711929L448.03513709065857,84.74264068711929L448.03513709065857,76.25735931288071Z" stroke="none" stroke-width="0" fill="#f2a600"></path><path d="M502.6315295760082,76.25735931288071L502.6315295760082,84.74264068711929L494.14624820176965,84.74264068711929L494.14624820176965,76.25735931288071Z" stroke="none" stroke-width="0" fill="#f2a600"></path><path d="M548.7426406871193,76.25735931288071L548.7426406871193,84.74264068711929L540.2573593128807,84.74264068711929L540.2573593128807,76.25735931288071Z" stroke="none" stroke-width="0" fill="#f2a600"></path></g><g><g><text text-anchor="middle" x="129.5" y="354.2" font-family="Roboto" font-size="12" stroke="none" stroke-width="0" fill="#000000">1</text></g><g><text text-anchor="middle" x="175.61111111111111" y="354.2" font-family="Roboto" font-size="12" stroke="none" stroke-width="0" fill="#000000">2</text></g><g><text text-anchor="middle" x="221.72222222222223" y="354.2" font-family="Roboto" font-size="12" stroke="none" stroke-width="0" fill="#000000">3</text></g><g><text text-anchor="middle" x="267.83333333333337" y="354.2" font-family="Roboto" font-size="12" stroke="none" stroke-width="0" fill="#000000">4</text></g><g><text text-anchor="middle" x="313.94444444444446" y="354.2" font-family="Roboto" font-size="12" stroke="none" stroke-width="0" fill="#000000">5</text></g><g><text text-anchor="middle" x="360.05555555555554" y="354.2" font-family="Roboto" font-size="12" stroke="none" stroke-width="0" fill="#000000">6</text></g><g><text text-anchor="middle" x="406.1666666666667" y="354.2" font-family="Roboto" font-size="12" stroke="none" stroke-width="0" fill="#000000">7</text></g><g><text text-anchor="middle" x="452.2777777777778" y="354.2" font-family="Roboto" font-size="12" stroke="none" stroke-width="0" fill="#000000">8</text></g><g><text text-anchor="middle" x="498.3888888888889" y="354.2" font-family="Roboto" font-size="12" stroke="none" stroke-width="0" fill="#000000">9</text></g><g><text text-anchor="middle" x="544.5" y="354.2" font-family="Roboto" font-size="12" stroke="none" stroke-width="0" fill="#000000">10</text></g><g><text text-anchor="end" x="119" y="340" font-family="Roboto" font-size="10" stroke="none" stroke-width="0" fill="#b7b7b7">0</text></g><g><text text-anchor="end" x="119" y="276" font-family="Roboto" font-size="10" stroke="none" stroke-width="0" fill="#b7b7b7">10</text></g><g><text text-anchor="end" x="119" y="212" font-family="Roboto" font-size="10" stroke="none" stroke-width="0" fill="#b7b7b7">20</text></g><g><text text-anchor="end" x="119" y="148" font-family="Roboto" font-size="10" stroke="none" stroke-width="0" fill="#b7b7b7">30</text></g><g><text text-anchor="end" x="119" y="84" font-family="Roboto" font-size="10" stroke="none" stroke-width="0" fill="#b7b7b7">40</text></g></g></g><g><g><text text-anchor="middle" x="337" y="390.2" font-family="Roboto" font-size="12" font-style="italic" stroke="none" stroke-width="0" fill="#222222">Period of the game</text><rect x="129" y="380" width="416" height="12" stroke="none" stroke-width="0" fill-opacity="0" fill="#ffffff"></rect></g></g><g></g></svg>
