<svg width="703" height="434" aria-label="A chart." style="overflow: hidden;"><defs id="defs"><clipPath id="_ABSTRACT_RENDERER_ID_3"><rect x="134" y="83" width="435" height="268"></rect></clipPath></defs><rect x="0" y="0" width="703" height="434" stroke="none" stroke-width="0" fill="#ffffff"></rect><g><text text-anchor="start" x="134" y="59.3" font-family="Roboto" font-size="18" font-weight="bold" stroke="none" stroke-width="0" fill="#000000">Lowest Equilibrium Payoff</text><rect x="134" y="44" width="435" height="18" stroke="none" stroke-width="0" fill-opacity="0" fill="#ffffff"></rect></g><g><rect x="580" y="83" width="112" height="47" stroke="none" stroke-width="0" fill-opacity="0" fill="#ffffff"></rect><g><rect x="580" y="83" width="112" height="11" stroke="none" stroke-width="0" fill-opacity="0" fill="#ffffff"></rect><g><text text-anchor="start" x="606" y="92.35" font-family="Roboto" font-size="11" stroke="none" stroke-width="0" fill="#666666">Investment</text></g><path d="M580,88.5L602,88.5" stroke="#1c4587" stroke-width="2" fill-opacity="1" fill="none"></path></g><g><rect x="580" y="101" width="112" height="11" stroke="none" stroke-width="0" fill-opacity="0" fill="#ffffff"></rect><g><text text-anchor="start" x="606" y="110.35" font-family="Roboto" font-size="11" stroke="none" stroke-width="0" fill="#666666">Contribution</text></g><path d="M580,106.5L602,106.5" stroke="#6d9eeb" stroke-width="2" fill-opacity="1" fill="none"></path><circle cx="591" cy="106.5" r="5.5" stroke="none" stroke-width="0" fill="#6d9eeb"></circle></g><g><rect x="580" y="119" width="112" height="11" stroke="none" stroke-width="0" fill-opacity="0" fill="#ffffff"></rect><g><text text-anchor="start" x="606" y="128.35" font-family="Roboto" font-size="11" stroke="none" stroke-width="0" fill="#666666">Payoff</text></g><path d="M580,124.5L602,124.5" stroke="#f2a600" stroke-width="2" fill-opacity="1" fill="none"></path><path d="M594.889087296526,120.61091270347399L594.889087296526,128.38908729652601L587.110912703474,128.38908729652601L587.110912703474,120.61091270347399Z" stroke="none" stroke-width="0" fill="#f2a600"></path></g></g><g><rect x="134" y="83" width="435" height="268" stroke="none" stroke-width="0" fill-opacity="0" fill="#ffffff"></rect><g clip-path="url(https://docs.google.com/spreadsheets/d/1nq3xxnjcSGgBDq-G7UOmCHCNxk-HIormQMgoYCt2HfM/edit#_ABSTRACT_RENDERER_ID_3)"><g><rect x="134" y="83" width="1" height="268" stroke="none" stroke-width="0" fill="#e0e0e0"></rect><rect x="182" y="83" width="1" height="268" stroke="none" stroke-width="0" fill="#e0e0e0"></rect><rect x="230" y="83" width="1" height="268" stroke="none" stroke-width="0" fill="#e0e0e0"></rect><rect x="279" y="83" width="1" height="268" stroke="none" stroke-width="0" fill="#e0e0e0"></rect><rect x="327" y="83" width="1" height="268" stroke="none" stroke-width="0" fill="#e0e0e0"></rect><rect x="375" y="83" width="1" height="268" stroke="none" stroke-width="0" fill="#e0e0e0"></rect><rect x="423" y="83" width="1" height="268" stroke="none" stroke-width="0" fill="#e0e0e0"></rect><rect x="472" y="83" width="1" height="268" stroke="none" stroke-width="0" fill="#e0e0e0"></rect><rect x="520" y="83" width="1" height="268" stroke="none" stroke-width="0" fill="#e0e0e0"></rect><rect x="568" y="83" width="1" height="268" stroke="none" stroke-width="0" fill="#e0e0e0"></rect><rect x="134" y="350" width="435" height="1" stroke="none" stroke-width="0" fill="#e0e0e0"></rect><rect x="134" y="283" width="435" height="1" stroke="none" stroke-width="0" fill="#e0e0e0"></rect><rect x="134" y="217" width="435" height="1" stroke="none" stroke-width="0" fill="#e0e0e0"></rect><rect x="134" y="150" width="435" height="1" stroke="none" stroke-width="0" fill="#e0e0e0"></rect><rect x="134" y="83" width="435" height="1" stroke="none" stroke-width="0" fill="#e0e0e0"></rect></g><g><rect x="134" y="350" width="435" height="1" stroke="none" stroke-width="0" fill="#9e9e9e"></rect></g><g><path d="M134.5,83.5L182.72222222222223,83.5L230.94444444444446,83.5L279.16666666666663,83.5L327.3888888888889,83.5L375.6111111111111,83.5L423.8333333333333,83.5L472.05555555555554,350.5L520.2777777777778,350.5L568.5,350.5" stroke="#1c4587" stroke-width="2" fill-opacity="1" fill="none"></path><path d="M134.5,350.5L182.72222222222223,350.5L230.94444444444446,350.5L279.16666666666663,350.5L327.3888888888889,350.5L375.6111111111111,350.5L423.8333333333333,350.5L472.05555555555554,350.5L520.2777777777778,350.5L568.5,350.5" stroke="#6d9eeb" stroke-width="2" fill-opacity="1" fill="none"></path><path d="M134.5,350.5L182.72222222222223,350.5L230.94444444444446,350.5L279.16666666666663,350.5L327.3888888888889,350.5L375.6111111111111,350.5L423.8333333333333,350.5L472.05555555555554,83.5L520.2777777777778,83.5L568.5,83.5" stroke="#f2a600" stroke-width="2" fill-opacity="1" fill="none"></path></g></g><g><circle cx="134.5" cy="350.5" r="8" stroke="none" stroke-width="0" fill="#6d9eeb"></circle><circle cx="182.72222222222223" cy="350.5" r="8" stroke="none" stroke-width="0" fill="#6d9eeb"></circle><circle cx="230.94444444444446" cy="350.5" r="8" stroke="none" stroke-width="0" fill="#6d9eeb"></circle><circle cx="279.16666666666663" cy="350.5" r="8" stroke="none" stroke-width="0" fill="#6d9eeb"></circle><circle cx="327.3888888888889" cy="350.5" r="8" stroke="none" stroke-width="0" fill="#6d9eeb"></circle><circle cx="375.6111111111111" cy="350.5" r="8" stroke="none" stroke-width="0" fill="#6d9eeb"></circle><circle cx="423.8333333333333" cy="350.5" r="8" stroke="none" stroke-width="0" fill="#6d9eeb"></circle><circle cx="472.05555555555554" cy="350.5" r="8" stroke="none" stroke-width="0" fill="#6d9eeb"></circle><circle cx="520.2777777777778" cy="350.5" r="8" stroke="none" stroke-width="0" fill="#6d9eeb"></circle><circle cx="568.5" cy="350.5" r="8" stroke="none" stroke-width="0" fill="#6d9eeb"></circle><path d="M138.7426406871193,346.25735931288074L138.7426406871193,354.74264068711926L130.2573593128807,354.74264068711926L130.2573593128807,346.25735931288074Z" stroke="none" stroke-width="0" fill="#f2a600"></path><path d="M186.96486290934152,346.25735931288074L186.96486290934152,354.74264068711926L178.47958153510294,354.74264068711926L178.47958153510294,346.25735931288074Z" stroke="none" stroke-width="0" fill="#f2a600"></path><path d="M235.18708513156375,346.25735931288074L235.18708513156375,354.74264068711926L226.70180375732517,354.74264068711926L226.70180375732517,346.25735931288074Z" stroke="none" stroke-width="0" fill="#f2a600"></path><path d="M283.4093073537859,346.25735931288074L283.4093073537859,354.74264068711926L274.92402597954737,354.74264068711926L274.92402597954737,346.25735931288074Z" stroke="none" stroke-width="0" fill="#f2a600"></path><path d="M331.6315295760082,346.25735931288074L331.6315295760082,354.74264068711926L323.14624820176965,354.74264068711926L323.14624820176965,346.25735931288074Z" stroke="none" stroke-width="0" fill="#f2a600"></path><path d="M379.85375179823035,346.25735931288074L379.85375179823035,354.74264068711926L371.3684704239918,354.74264068711926L371.3684704239918,346.25735931288074Z" stroke="none" stroke-width="0" fill="#f2a600"></path><path d="M428.0759740204526,346.25735931288074L428.0759740204526,354.74264068711926L419.59069264621405,354.74264068711926L419.59069264621405,346.25735931288074Z" stroke="none" stroke-width="0" fill="#f2a600"></path><path d="M476.2981962426748,79.25735931288071L476.2981962426748,87.74264068711929L467.8129148684363,87.74264068711929L467.8129148684363,79.25735931288071Z" stroke="none" stroke-width="0" fill="#f2a600"></path><path d="M524.5204184648971,79.25735931288071L524.5204184648971,87.74264068711929L516.0351370906585,87.74264068711929L516.0351370906585,79.25735931288071Z" stroke="none" stroke-width="0" fill="#f2a600"></path><path d="M572.7426406871193,79.25735931288071L572.7426406871193,87.74264068711929L564.2573593128807,87.74264068711929L564.2573593128807,79.25735931288071Z" stroke="none" stroke-width="0" fill="#f2a600"></path></g><g><g><text text-anchor="middle" x="134.5" y="368.2" font-family="Roboto" font-size="12" stroke="none" stroke-width="0" fill="#000000">1</text></g><g><text text-anchor="middle" x="182.72222222222223" y="368.2" font-family="Roboto" font-size="12" stroke="none" stroke-width="0" fill="#000000">2</text></g><g><text text-anchor="middle" x="230.94444444444446" y="368.2" font-family="Roboto" font-size="12" stroke="none" stroke-width="0" fill="#000000">3</text></g><g><text text-anchor="middle" x="279.16666666666663" y="368.2" font-family="Roboto" font-size="12" stroke="none" stroke-width="0" fill="#000000">4</text></g><g><text text-anchor="middle" x="327.3888888888889" y="368.2" font-family="Roboto" font-size="12" stroke="none" stroke-width="0" fill="#000000">5</text></g><g><text text-anchor="middle" x="375.6111111111111" y="368.2" font-family="Roboto" font-size="12" stroke="none" stroke-width="0" fill="#000000">6</text></g><g><text text-anchor="middle" x="423.8333333333333" y="368.2" font-family="Roboto" font-size="12" stroke="none" stroke-width="0" fill="#000000">7</text></g><g><text text-anchor="middle" x="472.05555555555554" y="368.2" font-family="Roboto" font-size="12" stroke="none" stroke-width="0" fill="#000000">8</text></g><g><text text-anchor="middle" x="520.2777777777778" y="368.2" font-family="Roboto" font-size="12" stroke="none" stroke-width="0" fill="#000000">9</text></g><g><text text-anchor="middle" x="568.5" y="368.2" font-family="Roboto" font-size="12" stroke="none" stroke-width="0" fill="#000000">10</text></g><g><text text-anchor="end" x="124" y="354" font-family="Roboto" font-size="10" stroke="none" stroke-width="0" fill="#b7b7b7">0</text></g><g><text text-anchor="end" x="124" y="287.25" font-family="Roboto" font-size="10" stroke="none" stroke-width="0" fill="#b7b7b7">2.5</text></g><g><text text-anchor="end" x="124" y="220.5" font-family="Roboto" font-size="10" stroke="none" stroke-width="0" fill="#b7b7b7">5</text></g><g><text text-anchor="end" x="124" y="153.75" font-family="Roboto" font-size="10" stroke="none" stroke-width="0" fill="#b7b7b7">7.5</text></g><g><text text-anchor="end" x="124" y="87" font-family="Roboto" font-size="10" stroke="none" stroke-width="0" fill="#b7b7b7">10</text></g></g></g><g><g><text text-anchor="middle" x="351.5" y="406.2" font-family="Roboto" font-size="12" font-style="italic" stroke="none" stroke-width="0" fill="#222222">Period of the game</text><rect x="134" y="396" width="435" height="12" stroke="none" stroke-width="0" fill-opacity="0" fill="#ffffff"></rect></g></g><g></g></svg>
